<?xml version="1.0" encoding="utf-8"?>
<!-- Generator: Adobe Illustrator 21.1.0, SVG Export Plug-In . SVG Version: 6.00 Build 0)  -->
<svg version="1.1" xmlns="http://www.w3.org/2000/svg" xmlns:xlink="http://www.w3.org/1999/xlink" x="0px" y="0px"
	 viewBox="0 0 35.4 35.4" style="enable-background:new 0 0 35.4 35.4;" xml:space="preserve">
<style type="text/css">
	.st0{fill-rule:evenodd;clip-rule:evenodd;}
</style>
<g id="BACKGROUND">
</g>
<g id="ELEMENTS">
	<g>
		<path d="M20.6,17.6L15.9,15c-0.2-0.1-0.8,0-0.8,0.2v4.9c0,0.2,0.6,0.4,0.8,0.3l4.9-2.4C21,18,20.8,17.7,20.6,17.6z"/>
		<path d="M17.7,0C7.9,0,0,7.9,0,17.7c0,9.8,7.9,17.7,17.7,17.7c9.8,0,17.7-7.9,17.7-17.7C35.4,7.9,27.5,0,17.7,0z M27.2,20.2
			c0,2.3-1.9,4.2-4.2,4.2H12.1c-2.3,0-4.2-1.9-4.2-4.2v-5.1c0-2.3,1.9-4.2,4.2-4.2h10.9c2.3,0,4.2,1.9,4.2,4.2V20.2z"/>
	</g>
</g>
<g id="TEXT">
</g>
</svg>
