<?xml version="1.0" encoding="utf-8"?>
<!-- Generator: Adobe Illustrator 21.1.0, SVG Export Plug-In . SVG Version: 6.00 Build 0)  -->
<svg version="1.1" xmlns="http://www.w3.org/2000/svg" xmlns:xlink="http://www.w3.org/1999/xlink" x="0px" y="0px"
	 viewBox="0 0 35.4 35.4" style="enable-background:new 0 0 35.4 35.4;" xml:space="preserve">
<style type="text/css">
	.st0{fill-rule:evenodd;clip-rule:evenodd;}
</style>
<g id="BACKGROUND">
</g>
<g id="ELEMENTS">
	<path d="M17.7,0C7.9,0,0,7.9,0,17.7s7.9,17.7,17.7,17.7c9.8,0,17.7-7.9,17.7-17.7S27.5,0,17.7,0z M8.7,8.6h18
		c0.4,0,0.8,0.1,1.1,0.2c-0.1,0-0.2,0.1-0.2,0.2l-8.1,9.1c-0.5,0.5-1.1,0.8-1.8,0.8c-0.7,0-1.4-0.3-1.8-0.8L7.6,8.9c0,0,0,0,0,0
		C7.9,8.7,8.3,8.6,8.7,8.6z M29.5,24c0,1.5-1.2,2.8-2.8,2.8h-18c-1.5,0-2.8-1.2-2.8-2.8V11.4c0-0.5,0.1-1,0.4-1.4c0,0,0,0,0,0.1
		l8.2,9.3c0.8,0.9,1.9,1.4,3.2,1.4c1.2,0,2.4-0.5,3.2-1.4l8.1-9.1C29,10.1,29,10,29.1,9.9c0.3,0.4,0.4,0.9,0.4,1.5V24z"/>
</g>
<g id="TEXT">
</g>
</svg>
