<?xml version="1.0" encoding="utf-8"?>
<!-- Generator: Adobe Illustrator 21.1.0, SVG Export Plug-In . SVG Version: 6.00 Build 0)  -->
<svg version="1.1" xmlns="http://www.w3.org/2000/svg" xmlns:xlink="http://www.w3.org/1999/xlink" x="0px" y="0px"
	 viewBox="0 0 35.4 35.4" style="enable-background:new 0 0 35.4 35.4;" xml:space="preserve">
<style type="text/css">
	.st0{fill-rule:evenodd;clip-rule:evenodd;}
</style>
<g id="BACKGROUND">
</g>
<g id="ELEMENTS">
	<g>
		<path d="M35.4,17.6C35,5.3,25.6-0.2,17.3,0C6.8,0.3-0.4,8.5,0,18.7c0.4,9.7,8.4,16.6,17.7,16.7C27.1,35.3,35.7,27.8,35.4,17.6z
			 M26.8,12.7c-0.9,4.9-1.9,9.9-2.8,14.8c0,0.2-0.1,0.4-0.1,0.7c-0.2,0.9-0.8,1.2-1.6,0.6c-0.8-0.5-1.6-1.1-2.5-1.7
			c-0.9-0.6-1.9-1.3-2.8-1.9c-0.2-0.2-0.4-0.2-0.6,0c-0.8,0.6-1.5,1.1-2.3,1.7c-0.1,0.1-0.2,0.2-0.4,0.3c-0.8,0.5-1.3,0.3-1.6-0.6
			c-0.2-0.6-0.3-1.3-0.5-1.9c-0.3-1-0.6-2.1-0.8-3.1c-0.1-0.5-0.4-0.8-0.9-1C8.4,20,7,19.4,5.5,18.9c-0.1,0-0.1,0-0.2-0.1
			c-0.4-0.2-0.8-0.4-0.8-1c0-0.5,0.4-0.8,0.8-0.9c3.8-1.5,7.5-3,11.3-4.5c3-1.2,6-2.4,9.1-3.6c0.2-0.1,0.5-0.2,0.7-0.2
			c0.6-0.2,1.2,0.3,1.1,1.1C27.3,10.5,27.1,11.6,26.8,12.7z"/>
		<path d="M15.1,21.7c2.5,1.7,4.8,3.3,7.3,4.9c0.9-4.9,1.8-9.7,2.8-14.4c0,0,0,0-0.1,0C21.7,15.3,18.4,18.5,15.1,21.7z"/>
		<path d="M22.3,12.1c-4.8,1.9-9.6,3.8-14.5,5.8c1.3,0.5,2.4,0.9,3.5,1.3c0.6,0.2,0.9,0.6,1,1.1c0.1,0.4,0.2,0.8,0.3,1.2
			C15.9,18.3,19.1,15.2,22.3,12.1C22.3,12.1,22.3,12.1,22.3,12.1z"/>
		<path d="M13.6,25c0.5-0.4,1-0.7,1.5-1.1c-0.7-0.5-1.4-0.9-2.1-1.5C13.1,23.4,13.3,24.1,13.6,25z"/>
	</g>
</g>
<g id="TEXT">
</g>
</svg>
