<?xml version="1.0" encoding="utf-8"?>
<!-- Generator: Adobe Illustrator 21.1.0, SVG Export Plug-In . SVG Version: 6.00 Build 0)  -->
<svg version="1.1" xmlns="http://www.w3.org/2000/svg" xmlns:xlink="http://www.w3.org/1999/xlink" x="0px" y="0px"
	 viewBox="0 0 35.4 35.4" style="enable-background:new 0 0 35.4 35.4;" xml:space="preserve">
<style type="text/css">
	.st0{fill-rule:evenodd;clip-rule:evenodd;}
</style>
<g id="BACKGROUND">
</g>
<g id="ELEMENTS">
	<path class="st0" d="M17.7,0C7.9,0,0,7.9,0,17.7c0,9.8,7.9,17.7,17.7,17.7c9.8,0,17.7-7.9,17.7-17.7C35.4,7.9,27.5,0,17.7,0z
		 M26.9,23.8c-0.6,1.4-2,2.3-3.5,2.6c-1.4,0.3-2.6-0.2-3.9-0.6c-1.2-0.4-2.3-0.9-3.3-1.6c-2.1-1.3-3.9-3-5.4-5
		c-0.4-0.6-0.9-1.2-1.2-1.9c-0.5-0.9-0.9-1.8-1.2-2.7c-0.1-0.4-0.1-0.8-0.2-1.2c0-1.5,0.5-2.9,1.7-3.9c0.7-0.5,1.7-0.8,2.4-0.4
		c0.8,0.5,1.2,1.6,1.6,2.4c0.3,0.6,0.6,1.5,0.5,2.2c-0.1,0.7-0.7,1.3-1.1,1.9c-0.3,0.4-0.4,0.7-0.1,1.1c1.5,2.5,3.6,4.3,6.3,5.4
		c0.4,0.1,0.7,0.1,0.9-0.2c0.5-0.6,0.9-1.7,1.7-2c0.9-0.4,2,0.1,2.8,0.6c0.7,0.4,2,1,2.2,1.9C27.2,22.9,27.1,23.3,26.9,23.8z"/>
</g>
<g id="TEXT">
</g>
</svg>
