<?xml version="1.0" encoding="utf-8"?>
<!-- Generator: Adobe Illustrator 21.1.0, SVG Export Plug-In . SVG Version: 6.00 Build 0)  -->
<svg version="1.1" id="Layer_1" xmlns="http://www.w3.org/2000/svg" xmlns:xlink="http://www.w3.org/1999/xlink" x="0px" y="0px"
	 viewBox="0 0 192 192" style="enable-background:new 0 0 192 192;" xml:space="preserve">
<path d="M102.8,31.6c1.8-6.9,3.5-13.7,5.2-20.6c6.4,3,12.5,5.9,18.9,9c-1.1,2.4-2.3,4.8-3.5,7.4c-3.3-1.5-6.4-3-9.9-4.6
	c-0.3,1.1-0.5,2-0.7,2.9c-1.6,6.3-3.1,12.7-4.8,19c-1.8,6.5-7.4,10.5-13.6,9.6c-6.6-0.9-11-5.9-11-12.4c0-8,7.8-13.9,15.6-11.8
	C100.1,30.5,101.2,31,102.8,31.6z"/>
<ellipse cx="163" cy="100.3" rx="19.3" ry="25.9"/>
<path d="M116.9,157.3c0,0-7.9,3-14.2,2.8c-6.3-0.2-15.6-10,7.9-5.6c15.5,2.9,33.3-4.8,43.6-10.4c1.9-3.7,3.7-7.5,5.6-11.3
	c-13.3-6.8-21.3-16.3-22.3-30.6C136.6,88,143.1,77.4,155,70c-4.5-6.4-9.7-10.3-16.9-13c-11-4.1-21.9-3.5-32.5,1.2
	c-7.9,3.5-15.3,3.5-23.3,0.1c-4.8-2-10.4-3.4-15.6-3.5c-16.8-0.3-31.9,11.7-37.4,28.9c-3.4,10.5-3.4,21.2-1.4,31.9
	c3.8,20.5,12.8,38.4,28,52.9c5.8,5.6,12.9,7.6,20.3,4.4c13.2-5.8,26-6,39.3-0.2c8.3,3.6,16.3,1.1,22.4-5.6
	c4.2-4.6,8.3-9.4,11.6-14.7c0.9-1.4,1.8-2.9,2.6-4.4C130.6,158.2,116.9,157.3,116.9,157.3z"/>
</svg>
